<?xml version="1.0" encoding="utf-8"?>
<!DOCTYPE svg PUBLIC "-//W3C//DTD SVG 1.1//EN" "http://www.w3.org/Graphics/SVG/1.1/DTD/svg11.dtd">
<svg version="1.1" xmlns="http://www.w3.org/2000/svg" xmlns:xlink="http://www.w3.org/1999/xlink" x="0px" y="0px" viewBox="0 0 1000 1000" enable-background="new 0 0 1000 1000" xml:space="preserve">
<metadata>PS Chat</metadata>
<g>
  <g transform="translate(0.000000,462.000000) scale(0.100000,-0.100000)">
    <path fill="#FE414D" d="M4472.9,4492.4C2377.1,4206.7,746.1,2682.3,347.4,637.7c-198.3-1025.5-51.2-2070.2,428.5-3036l172.7-343.2L520.1-4005.9c-236.7-692.9-424.3-1266.4-420-1270.7c4.3-4.3,601.2,179.1,1324,409.4l1317.6,420l251.6-119.4c1029.8-481.8,2172.6-599.1,3259.9-330.5c1669.4,413.6,3012.6,1709.9,3475.3,3355.8c194,695,226,1522.3,83.2,2228c-328.3,1618.2-1483.9,2963.6-3048.8,3545.6c-236.7,89.6-622.6,189.8-914.7,240.9C5568.8,4520.1,4760.7,4532.9,4472.9,4492.4z M5666.9,3722.8c1571.3-213.2,2906-1383.7,3326-2918.8c179.1-654.6,187.6-1385.8,23.4-2034c-336.9-1326.1-1341-2402.8-2645.9-2835.6c-1115.1-371-2351.7-243-3343.1,347.5c-91.7,53.3-174.8,98.1-183.4,98.1c-6.4,0-356.1-108.8-776.1-243.1c-417.9-132.2-761.1-234.5-761.1-223.9c0,8.5,110.9,343.3,247.3,742l247.3,724.9l-110.9,166.3c-138.6,208.9-362.5,663.1-445.6,904C594.7,334.9,1453.9,2420.1,3257.6,3332.6C4001.7,3707.8,4809.8,3837.9,5666.9,3722.8z"/>
  </g>
  <g transform="translate(750.000000,450.000000) scale(-0.0500000,-0.0500000)">
    <path fill="#079FFF" d="M4472.9,4492.4C2377.1,4206.7,746.1,2682.3,347.4,637.7c-198.3-1025.5-51.2-2070.2,428.5-3036l172.7-343.2L520.1-4005.9c-236.7-692.9-424.3-1266.4-420-1270.7c4.3-4.3,601.2,179.1,1324,409.4l1317.6,420l251.6-119.4c1029.8-481.8,2172.6-599.1,3259.9-330.5c1669.4,413.6,3012.6,1709.9,3475.3,3355.8c194,695,226,1522.3,83.2,2228c-328.3,1618.2-1483.9,2963.6-3048.8,3545.6c-236.7,89.6-622.6,189.8-914.7,240.9C5568.8,4520.1,4760.7,4532.9,4472.9,4492.4z M5666.9,3722.8c1571.3-213.2,2906-1383.7,3326-2918.8c179.1-654.6,187.6-1385.8,23.4-2034c-336.9-1326.1-1341-2402.8-2645.9-2835.6c-1115.1-371-2351.7-243-3343.1,347.5c-91.7,53.3-174.8,98.1-183.4,98.1c-6.4,0-356.1-108.8-776.1-243.1c-417.9-132.2-761.1-234.5-761.1-223.9c0,8.5,110.9,343.3,247.3,742l247.3,724.9l-110.9,166.3c-138.6,208.9-362.5,663.1-445.6,904C594.7,334.9,1453.9,2420.1,3257.6,3332.6C4001.7,3707.8,4809.8,3837.9,5666.9,3722.8z"/>
  </g>
</g>
</svg>